HIERARCHY
ROOT Pelvis
{
	OFFSET 0.000000 0.000000 0.000000
	CHANNELS 6 Xposition Yposition Zposition Xrotation Yrotation Zrotation
	JOINT LeftUpLeg_virtual
	{
		OFFSET 0.000000 0.000000 0.000000
		CHANNELS 3 Xrotation Yrotation Zrotation
		JOINT LeftUpLeg
		{
			OFFSET 18.735201 -5.666702 -4.541200
			CHANNELS 3 Xrotation Yrotation Zrotation
			JOINT LeftLeg
			{
				OFFSET -0.021200 -31.938179 0.493100
				CHANNELS 3 Xrotation Yrotation Zrotation
				JOINT LeftFoot
				{
					OFFSET 0.021200 -31.938179 -4.336299
					CHANNELS 3 Xrotation Yrotation Zrotation
					JOINT LeftToeBase
					{
						OFFSET 0.943001 -26.722000 15.023500
						CHANNELS 3 Xrotation Yrotation Zrotation
						End Site
						{
							OFFSET 0 0 0
						}
					}
				}
			}
		}
	}
	JOINT RightUpLeg_virtual
	{
		OFFSET 0.000000 0.000000 0.000000
		CHANNELS 3 Xrotation Yrotation Zrotation
		JOINT RightUpLeg
		{
			OFFSET -18.735201 -5.666702 -4.541200
			CHANNELS 3 Xrotation Yrotation Zrotation
			JOINT RightLeg
			{
				OFFSET 0.018946 -31.938133 0.493100
				CHANNELS 3 Xrotation Yrotation Zrotation
				JOINT RightFoot
				{
					OFFSET -0.018946 -31.938126 -4.336299
					CHANNELS 3 Xrotation Yrotation Zrotation
					JOINT RightToeBase
					{
						OFFSET -0.943001 -26.722004 15.023500
						CHANNELS 3 Xrotation Yrotation Zrotation
						End Site
						{
							OFFSET 0 0 0
						}
					}
				}
			}
		}
	}
	JOINT Hips_virtual
	{
		OFFSET 0.000000 0.000000 0.000000
		CHANNELS 3 Xrotation Yrotation Zrotation
		JOINT Hips
		{
			OFFSET -0.000000 -0.000000 -0.000000
			CHANNELS 3 Xrotation Yrotation Zrotation
			JOINT Spine
			{
				OFFSET 0.000000 10.199997 -0.299500
				CHANNELS 3 Xrotation Yrotation Zrotation
				JOINT Spine1
				{
					OFFSET 0.000000 11.900002 -1.516600
					CHANNELS 3 Xrotation Yrotation Zrotation
					JOINT Spine2
					{
						OFFSET 0.000000 13.600006 -2.842500
						CHANNELS 3 Xrotation Yrotation Zrotation
						JOINT Neck_virtual
						{
							OFFSET 0.000000 0.000000 0.000000
							CHANNELS 3 Xrotation Yrotation Zrotation
							JOINT Neck
							{
								OFFSET 0.000000 9.624100 -2.890100
								CHANNELS 3 Xrotation Yrotation Zrotation
								JOINT Head
								{
									OFFSET 0.000000 14.068802 -1.351900
									CHANNELS 3 Xrotation Yrotation Zrotation
									End Site
									{
										OFFSET 0 0 0
									}
								}
							}
						}
						JOINT LeftShoulder_virtual
						{
							OFFSET 0.000000 0.000000 0.000000
							CHANNELS 3 Xrotation Yrotation Zrotation
							JOINT LeftShoulder
							{
								OFFSET 15.263000 10.923401 -0.547700
								CHANNELS 3 Xrotation Yrotation Zrotation
								JOINT LeftArm
								{
									OFFSET 25.438599 -2.830597 -13.032500
									CHANNELS 3 Xrotation Yrotation Zrotation
									JOINT LeftForeArm
									{
										OFFSET 29.960503 0.000000 0.000000
										CHANNELS 3 Xrotation Yrotation Zrotation
										JOINT LeftHand
										{
											OFFSET 27.849251 0.000000 0.000000
											CHANNELS 3 Xrotation Yrotation Zrotation
											End Site
											{
												OFFSET 0 0 0
											}
										}
									}
								}
							}
						}
						JOINT RightShoulder_virtual
						{
							OFFSET 0.000000 0.000000 0.000000
							CHANNELS 3 Xrotation Yrotation Zrotation
							JOINT RightShoulder
							{
								OFFSET -15.263000 10.923401 -0.547700
								CHANNELS 3 Xrotation Yrotation Zrotation
								JOINT RightArm
								{
									OFFSET -25.438599 -2.830597 -13.032500
									CHANNELS 3 Xrotation Yrotation Zrotation
									JOINT RightForeArm
									{
										OFFSET -29.960503 0.000000 0.000000
										CHANNELS 3 Xrotation Yrotation Zrotation
										JOINT RightHand
										{
											OFFSET -27.849251 0.000000 0.000000
											CHANNELS 3 Xrotation Yrotation Zrotation
											End Site
											{
												OFFSET 0 0 0
											}
										}
									}
								}
							}
						}
					}
				}
			}
		}
	}
}
MOTION
Frames: 11
Frame Time: 0.03333333
1.287438 55.584835 -5.257055 0.000000 0.000000 0.000000 -179.131478 -0.454822 154.578109 -121.305840 0.838326 51.592531 84.148484 -0.702498 -2.153522 13.381366 -0.650929 -8.655142 0.000000 0.000000 0.000000 -179.603909 27.280044 168.100313 -83.680110 39.835767 -0.085097 66.584366 8.208007 7.174544 -2.618702 -0.517608 28.183379 0.000000 0.000000 0.000000 1.804711 61.761535 -2.811679 -169.479000 48.113301 156.845049 9.928837 7.509954 -4.989863 4.987516 5.296807 -3.493575 0.000000 0.000000 0.000000 6.137252 8.936422 -1.933531 0.490418 5.082800 -0.147998 0.000000 0.000000 0.000000 7.819530 4.642896 -4.614092 1.633757 -6.962329 -11.788283 35.204222 -24.699528 -42.876888 22.561669 -33.155275 0.321295 0.000000 0.000000 0.000000 6.435810 2.932360 -0.687662 3.101824 -2.139401 5.630404 34.090253 3.579700 50.689723 12.574777 38.347038 7.300290 0.000000 0.000000 0.000000 
1.241831 55.620430 -5.455772 0.000000 0.000000 0.000000 -179.207635 -1.207786 153.828127 -121.759119 0.509971 51.417685 84.306534 -0.796830 -2.105081 13.503827 -0.764999 -8.692043 0.000000 0.000000 0.000000 -179.771685 27.226695 168.100572 -83.705307 39.954698 -0.267652 66.701093 8.234322 7.314777 -2.578853 -0.576358 28.358770 0.000000 0.000000 0.000000 2.113231 62.304733 -2.930850 -169.028768 48.409881 156.931109 9.938599 7.500821 -4.971515 5.052883 5.305590 -3.511723 0.000000 0.000000 0.000000 6.212247 8.964155 -1.945440 0.486214 5.105570 -0.145936 0.000000 0.000000 0.000000 7.891135 4.663100 -4.674872 1.543600 -7.214390 -11.667130 34.956522 -24.551211 -42.919427 22.502239 -33.077623 0.220632 0.000000 0.000000 0.000000 6.487081 2.999082 -0.714965 3.115170 -2.454903 5.655367 34.264836 3.534192 50.690983 12.529674 38.825705 7.438635 0.000000 0.000000 0.000000 
1.154411 55.678658 -5.792299 0.000000 0.000000 0.000000 -179.323557 -2.562634 152.500598 -122.553934 -0.086680 51.126199 84.585780 -0.964856 -2.008972 13.717828 -0.973437 -8.746829 0.000000 0.000000 0.000000 179.940009 27.130493 168.087363 -83.766355 40.146588 -0.586820 66.911730 8.279721 7.560895 -2.511080 -0.681171 28.662441 0.000000 0.000000 0.000000 2.765416 63.276484 -3.200294 -168.325914 48.989931 157.163718 9.950326 7.498894 -4.929716 5.173380 5.322457 -3.543342 0.000000 0.000000 0.000000 6.345357 9.018233 -1.967666 0.476809 5.146713 -0.143621 0.000000 0.000000 0.000000 8.029210 4.698029 -4.788412 1.385189 -7.677102 -11.433867 34.497769 -24.252648 -42.984949 22.384569 -32.960806 0.034658 0.000000 0.000000 0.000000 6.589055 3.123217 -0.763035 3.138714 -3.030287 5.702779 34.553323 3.441717 50.683470 12.439456 39.703620 7.696942 0.000000 0.000000 0.000000 
1.031479 55.737709 -6.168253 0.000000 0.000000 0.000000 -179.400615 -4.263943 150.894493 -123.506295 -0.858990 50.815190 84.925240 -1.174148 -1.867887 13.970531 -1.243960 -8.791023 0.000000 0.000000 0.000000 179.602406 27.013193 168.045822 -83.867319 40.343352 -0.976192 67.174371 8.330743 7.857372 -2.435093 -0.812379 29.018014 0.000000 0.000000 0.000000 3.821092 64.489888 -3.676571 -167.696608 49.816722 157.637078 9.952488 7.528676 -4.857428 5.330246 5.346150 -3.580527 0.000000 0.000000 0.000000 6.510252 9.096212 -1.997905 0.461352 5.199526 -0.144126 0.000000 0.000000 0.000000 8.222725 4.739140 -4.939853 1.194346 -8.278439 -11.104303 33.892341 -23.805854 -43.040096 22.213768 -32.864046 -0.209270 0.000000 0.000000 0.000000 6.738311 3.288366 -0.821260 3.167702 -3.774458 5.768939 34.863130 3.298331 50.652229 12.305224 40.845166 8.041345 0.000000 0.000000 0.000000 
0.881474 55.774555 -6.482826 0.000000 0.000000 0.000000 -179.329663 -6.028445 149.351744 -124.418603 -1.714656 50.588110 85.259230 -1.393394 -1.688059 14.202302 -1.542450 -8.800877 0.000000 0.000000 0.000000 179.278737 26.906922 167.975798 -83.983999 40.487176 -1.383774 67.435359 8.370544 8.146948 -2.372594 -0.951011 29.346516 0.000000 0.000000 0.000000 5.341208 65.745652 -4.425951 -167.481607 50.820494 158.435513 9.936570 7.610747 -4.750823 5.500444 5.374962 -3.614853 0.000000 0.000000 0.000000 6.681671 9.194619 -2.034247 0.440618 5.257752 -0.150901 0.000000 0.000000 0.000000 8.454843 4.778414 -5.109955 1.008947 -8.932200 -10.698190 33.216897 -23.224687 -43.048500 22.001708 -32.841199 -0.478156 0.000000 0.000000 0.000000 6.925974 3.474760 -0.878515 3.197915 -4.589406 5.850710 35.110587 3.096861 50.584378 12.131324 42.095480 8.427516 0.000000 0.000000 0.000000 
0.717104 55.773930 -6.663384 0.000000 0.000000 0.000000 -179.013589 -7.617696 148.159808 -125.131934 -2.578481 50.521130 85.534978 -1.603033 -1.480322 14.363435 -1.842625 -8.769157 0.000000 0.000000 0.000000 179.001390 26.849496 167.900366 -84.055108 40.554385 -1.794603 67.638585 8.383658 8.386745 -2.343042 -1.083991 29.589097 0.000000 0.000000 0.000000 7.350744 66.881547 -5.495475 -167.918671 51.903454 159.587793 9.903200 7.752081 -4.614148 5.662990 5.406765 -3.640462 0.000000 0.000000 0.000000 6.843235 9.308264 -2.075576 0.417835 5.317345 -0.166759 0.000000 0.000000 0.000000 8.705110 4.811358 -5.278593 0.858574 -9.554029 -10.237340 32.542935 -22.539167 -42.983671 21.767243 -32.918650 -0.741175 0.000000 0.000000 0.000000 7.136895 3.663465 -0.926087 3.227401 -5.392294 5.946761 35.251788 2.829049 50.473718 11.927821 43.317985 8.806702 0.000000 0.000000 0.000000 
0.557735 55.734673 -6.680169 0.000000 0.000000 0.000000 -178.419458 -8.875962 147.479767 -125.554778 -3.389872 50.642106 85.722644 -1.799092 -1.260312 14.427292 -2.130504 -8.709528 0.000000 0.000000 0.000000 178.766746 26.876029 167.861680 -83.995426 40.560235 -2.230098 67.734788 8.361316 8.554787 -2.362953 -1.204779 29.717163 0.000000 0.000000 0.000000 9.799792 67.795727 -6.878789 -169.067836 52.962557 161.039373 9.863687 7.942913 -4.461508 5.804680 5.438756 -3.656220 0.000000 0.000000 0.000000 6.988872 9.429466 -2.120911 0.398116 5.376538 -0.192920 0.000000 0.000000 0.000000 8.953353 4.838215 -5.428324 0.759329 -10.073647 -9.743944 31.923266 -21.793163 -42.838270 21.533044 -33.085792 -0.976208 0.000000 0.000000 0.000000 7.351431 3.839771 -0.959038 3.256641 -6.124110 6.057392 35.291256 2.491521 50.321046 11.712273 44.419439 9.132106 0.000000 0.000000 0.000000 
0.428211 55.670033 -6.543327 0.000000 0.000000 0.000000 -177.602909 -9.731231 147.327986 -125.667681 -4.094532 50.928185 85.816081 -1.989893 -1.047469 14.395358 -2.402820 -8.652352 0.000000 0.000000 0.000000 178.545339 27.008434 167.907715 -83.723974 40.547227 -2.728899 67.688814 8.304953 8.646669 -2.447523 -1.310411 29.729051 0.000000 0.000000 0.000000 12.546355 68.446364 -8.496933 -170.807991 53.918524 162.657841 9.835212 8.160545 -4.313866 5.922024 5.467196 -3.665684 0.000000 0.000000 0.000000 7.118629 9.548306 -2.168277 0.386686 5.434691 -0.228393 0.000000 0.000000 0.000000 9.183321 4.863084 -5.546867 0.714067 -10.443579 -9.237632 31.385624 -21.036484 -42.625445 21.320280 -33.299891 -1.172710 0.000000 0.000000 0.000000 7.548909 3.994941 -0.976069 3.287289 -6.747704 6.183675 35.270192 2.094407 50.131697 11.509422 45.357128 9.365418 0.000000 0.000000 0.000000 
0.352822 55.602001 -6.287880 0.000000 0.000000 0.000000 -176.688565 -10.181845 147.608120 -125.512321 -4.644921 51.319446 85.828048 -2.188560 -0.862741 14.293109 -2.661626 -8.634583 0.000000 0.000000 0.000000 178.298455 27.246538 168.077240 -83.191929 40.566392 -3.323859 67.484646 8.226072 8.667028 -2.611316 -1.397700 29.638766 0.000000 0.000000 0.000000 15.381313 68.838936 -10.213343 -172.899436 54.732403 164.273426 9.832682 8.376733 -4.191908 6.018568 5.487370 -3.674847 0.000000 0.000000 0.000000 7.233123 9.654239 -2.214209 0.386883 5.490995 -0.269979 0.000000 0.000000 0.000000 9.384601 4.891506 -5.627837 0.716022 -10.644361 -8.731473 30.934091 -20.315440 -42.372192 21.143585 -33.502580 -1.330139 0.000000 0.000000 0.000000 7.711855 4.125855 -0.978604 3.320475 -7.243223 6.326671 35.245535 1.667126 49.912847 11.347795 46.130999 9.482700 0.000000 0.000000 0.000000 
0.346535 55.553238 -5.955799 0.000000 0.000000 0.000000 -175.823454 -10.283464 148.166788 -125.172424 -5.010356 51.741022 85.783604 -2.405871 -0.724898 14.158424 -2.909199 -8.688395 0.000000 0.000000 0.000000 177.993951 27.563869 168.389011 -82.397845 40.660686 -4.025799 67.128848 8.142465 8.622329 -2.865599 -1.461485 29.464989 0.000000 0.000000 0.000000 18.091154 69.011057 -11.881326 -175.075671 55.401198 165.733871 9.861816 8.565120 -4.108227 6.099755 5.494126 -3.688785 0.000000 0.000000 0.000000 7.330577 9.738525 -2.254542 0.398952 5.543842 -0.313110 0.000000 0.000000 0.000000 9.552388 4.927695 -5.669991 0.753242 -10.685347 -8.229533 30.554499 -19.666179 -42.109564 21.007693 -33.640939 -1.453872 0.000000 0.000000 0.000000 7.829541 4.233128 -0.969617 3.355828 -7.605913 6.486904 35.270673 1.256333 49.673036 11.253732 46.768375 9.478410 0.000000 0.000000 0.000000 
0.409045 55.541077 -5.582977 0.000000 0.000000 0.000000 -175.128769 -10.137157 148.845026 -124.750618 -5.189396 52.125951 85.713417 -2.646269 -0.646315 14.027492 -3.145724 -8.832527 0.000000 0.000000 0.000000 177.617936 27.910917 168.838069 -81.386758 40.855077 -4.817089 66.651281 8.072506 8.518401 -3.213212 -1.495962 29.225157 0.000000 0.000000 0.000000 20.522441 69.017948 -13.394857 -177.118936 55.940035 166.944235 9.917451 8.706114 -4.062871 6.168966 5.483106 -3.709078 0.000000 0.000000 0.000000 7.407842 9.796039 -2.286097 0.420359 5.590992 -0.353222 0.000000 0.000000 0.000000 9.686055 4.972579 -5.675838 0.812211 -10.599462 -7.728426 30.220903 -19.112222 -41.865341 20.906798 -33.685318 -1.551223 0.000000 0.000000 0.000000 7.900145 4.318645 -0.952634 3.391697 -7.846312 6.663628 35.382996 0.913431 49.422538 11.244774 47.306785 9.365371 0.000000 0.000000 0.000000 
